<svg width="171" height="31" viewBox="0 0 171 31" fill="none" xmlns="http://www.w3.org/2000/svg">
<path id="&#226;&#152;&#133;&#226;&#152;&#133;&#226;&#152;&#133;&#226;&#152;&#133;&#226;&#152;&#133;" d="M6.37552 30.612L10.2275 19.164L0.939516 12.936H12.3155L16.3835 0.659998L20.5235 12.936H31.8275L22.5395 19.164L26.4635 30.612L16.3835 23.304L6.37552 30.612ZM40.9341 30.612L44.7861 19.164L35.4981 12.936H46.8741L50.9421 0.659998L55.0821 12.936H66.3861L57.0981 19.164L61.0221 30.612L50.9421 23.304L40.9341 30.612ZM75.4927 30.612L79.3447 19.164L70.0567 12.936H81.4327L85.5007 0.659998L89.6407 12.936H100.945L91.6567 19.164L95.5807 30.612L85.5007 23.304L75.4927 30.612ZM110.051 30.612L113.903 19.164L104.615 12.936H115.991L120.059 0.659998L124.199 12.936H135.503L126.215 19.164L130.139 30.612L120.059 23.304L110.051 30.612ZM144.61 30.612L148.462 19.164L139.174 12.936H150.55L154.618 0.659998L158.758 12.936H170.062L160.774 19.164L164.698 30.612L154.618 23.304L144.61 30.612Z" fill="#FFD900"/>
</svg>
